<svg id="Layer_1" data-name="Layer 1" xmlns="http://www.w3.org/2000/svg" viewBox="0 0 185 54"><defs><style>.cls-1{fill:#ffdc00;}.cls-2{fill:#1d1d1b;}.cls-3{fill:none;stroke:#1d1d1b;stroke-miterlimit:3.86;stroke-width:0.22px;}.cls-4{fill:#fff;}</style></defs><title>185</title><rect class="cls-1" width="185" height="54"/><rect class="cls-2" x="7.2" y="26.03" width="126.91" height="18.62"/><rect class="cls-3" x="7.2" y="26.03" width="126.91" height="18.62"/><path class="cls-2" d="M140.6,41.93V38.72h-1.16l-3,3.42v.22h3.09v1.8h1.1v-1.8h1.23v-.42Zm-3.39,0,2.27-2.57,0,2.57Zm1.45-11.31v5.12h1.1V30.18l-1.93.13v.35Zm1.64-7.33c0,.65-.28,1.45-1.15,1.45s-1-.7-1-1.19c0-.65.26-1.45,1.14-1.45A1,1,0,0,1,140.3,23.29Zm-.91,4,1.67-2.85a1.9,1.9,0,0,0,.35-1.11,1.73,1.73,0,0,0-1.93-1.59,2.21,2.21,0,0,0-2.4,1.93,1.49,1.49,0,0,0,1.67,1.4,3.56,3.56,0,0,0,.85-.12l-1.33,2.34Zm-.73-13.54V18.9h1.1V13.35l-1.93.13v.35Z" transform="translate(0.09 0.49)"/><rect class="cls-4" x="108.82" y="26.03" width="2.38" height="15.35"/><path class="cls-4" d="M117,39.48c-1.77,0-1.57-2.5-1.57-3.27S115.21,33,117,33c1.6,0,1.5,2.51,1.5,3.25S118.58,39.48,117,39.48Zm1.42,1.41h2.38V31.55H118.4v1h-.05a2.55,2.55,0,0,0-2.28-1.18c-3,0-3.09,3.14-3.09,4.7S113,41,116,41a2.34,2.34,0,0,0,2.36-1.35h.05Z" transform="translate(0.09 0.49)"/><path class="cls-4" d="M125.45,31.55h-2.38v9.34h2.41V35c0-1.18.56-1.9,2.33-1.9l.4,0V31.4a3,3,0,0,0-2.71,1.29h0Z" transform="translate(0.09 0.49)"/><rect class="cls-4" x="130" y="32.04" width="2.38" height="9.34"/><path class="cls-4" d="M16.49,27.22a6.74,6.74,0,0,0-2.69-.46c-2.86,0-4.29,1.61-4.29,3.57,0,3.66,5.35,4.22,5.35,7,0,1-.66,1.94-2.23,1.94a5.1,5.1,0,0,1-2.51-.72v1.87a5.61,5.61,0,0,0,2.79.66c2.81,0,4.49-1.68,4.49-3.64s-1-2.81-2.71-4.09l-1.93-1.53a1.92,1.92,0,0,1-.71-1.52c0-1,.86-1.79,2.26-1.79a4.32,4.32,0,0,1,2.15.59ZM13.4,41.83l-1.57,2.63,1.09.43,2.16-2.46Z" transform="translate(0.09 0.49)"/><path class="cls-4" d="M21.25,35.32c0-.72-.1-2.37,1.4-2.37s1.44,1.64,1.44,2.37Zm5.27,1.24v-.28c0-1.92-.4-4.88-3.88-4.88s-3.83,3-3.83,4.88S19.14,41,22.72,41c2.69,0,3.73-1.57,3.73-3.29h-2.2c0,.72-.23,1.74-1.5,1.74-1.55,0-1.5-2.15-1.5-2.92Z" transform="translate(0.09 0.49)"/><path class="cls-4" d="M28.42,25.54V40.89H30.8V35.06c0-.79-.13-2.11,1.45-2.11,1.27,0,1.42.83,1.42,1.48v6.45H36V34.47C36,33,36,31.4,33.44,31.4a2.89,2.89,0,0,0-2.59,1.22H30.8V25.54Z" transform="translate(0.09 0.49)"/><path class="cls-4" d="M40.69,31.55H38.31v9.34h2.38Zm-1.16-1.67c.84,0,1.57-.52,1.57-1.16s-.74-1.15-1.57-1.15-1.6.52-1.6,1.15S38.64,29.88,39.52,29.88Z" transform="translate(0.09 0.49)"/><path class="cls-4" d="M45.31,31.55H42.93v9.34h2.41V35c0-1.18.56-1.9,2.33-1.9l.4,0V31.4a3,3,0,0,0-2.71,1.29h0Z" transform="translate(0.09 0.49)"/><polygon class="cls-4" points="53.9 27.43 53.9 29.04 56.89 29.04 56.89 41.38 59.43 41.38 59.43 29.04 62.29 29.04 62.29 27.43 53.9 27.43"/><path class="cls-4" d="M65.18,31.55H62.8v9.34h2.38ZM64,29.88c.84,0,1.57-.52,1.57-1.16s-.74-1.15-1.57-1.15-1.6.52-1.6,1.15S63.13,29.88,64,29.88Z" transform="translate(0.09 0.49)"/><polygon class="cls-4" points="66.5 32.04 69.89 40.62 67.91 45.2 70.42 45.2 75.64 32.04 73.24 32.04 71.08 38.55 71.03 38.55 69.16 32.04 66.5 32.04"/><path class="cls-4" d="M80.57,39.48C78.8,39.48,79,37,79,36.21S78.8,33,80.57,33c1.6,0,1.5,2.51,1.5,3.25S82.17,39.48,80.57,39.48ZM82,40.89h2.38V31.55H82v1h-.05a2.55,2.55,0,0,0-2.28-1.18c-3,0-3.09,3.14-3.09,4.7s.05,4.94,3,4.94a2.34,2.34,0,0,0,2.36-1.35H82Z" transform="translate(0.09 0.49)"/><polygon class="cls-4" points="87.23 29.39 87.23 32.04 85.94 32.04 85.94 33.41 87.23 33.41 87.23 41.38 89.61 41.38 89.61 33.41 90.88 33.41 90.88 32.04 89.61 32.04 89.61 29.39 87.23 29.39"/><path class="cls-4" d="M94.69,31.55H92.31v9.34h2.41V35c0-1.18.56-1.9,2.33-1.9l.41,0V31.4a3,3,0,0,0-2.71,1.29h-.05Z" transform="translate(0.09 0.49)"/><path class="cls-4" d="M102.83,41c3.65,0,4-2.83,4-4.79s-.38-4.84-4-4.84-4,2.81-4,4.84S99.18,41,102.83,41Zm0-1.59c-1.83,0-1.6-2.53-1.6-3.2S101,33,102.83,33s1.6,2.51,1.6,3.25S104.65,39.44,102.83,39.44Z" transform="translate(0.09 0.49)"/><path class="cls-2" d="M132.57,15.14a.55.55,0,1,0-.59-.54A.56.56,0,0,0,132.57,15.14Zm.47.27h-1v7.36h1Zm-2.41.15a2.05,2.05,0,0,0-1.06-.25,1.68,1.68,0,0,0-1.69,1.88c0,1.93,2.12,2.23,2.12,3.69,0,.55-.26,1-.88,1a1.66,1.66,0,0,1-1-.38v1A1.81,1.81,0,0,0,131,21a2.71,2.71,0,0,0-1.07-2.16l-.76-.81a1.18,1.18,0,0,1-.28-.8.89.89,0,0,1,.89-.95,1.41,1.41,0,0,1,.86.31Zm-6-.15v7.36h2.7v-.85h-1.7v-2.5h1.52v-.85h-1.52V16.27h1.7v-.85Zm-4.72,0,1.5,4.19v3.17h1V19.61l1.4-4.19h-1.07l-.64,2.46-.16.95L121,15.42Zm-1.29-.27a.55.55,0,1,0-.59-.54A.56.56,0,0,0,118.6,15.14Zm.47.27h-1v7.36h1Zm-3.3,3.81c0,1.25.07,2.77-1.58,2.72v-5.7C115.89,16.15,115.78,18.09,115.78,19.23Zm-2.59-3.81v7.36h.69c1.8,0,3-.16,3-3.55,0-3.73-1.34-3.81-2.53-3.81Zm-3.68,0v7.36h2.7v-.85h-1.69v-2.5H112v-.85h-1.51V16.27h1.69v-.85Zm-3.51,0v7.36h2.69v-.85H107V15.42Zm-3.67,0v7.36H105v-.85h-1.7v-2.5h1.51v-.85h-1.51V16.27H105v-.85Zm-2.38,1.93c0,.78-.13,1.35-1.06,1.31V16.25h.17C99.74,16.24,99.94,16.77,99.94,17.35Zm-.81,5.43c1.39,0,1.91-.65,1.91-2,0-.82-.2-1.47-1.06-1.73.8-.23,1-.93,1-1.65,0-1.24-.38-2-1.74-2H97.93v7.36Zm-.25-3.34c.92,0,1.09.49,1.09,1.3s-.22,1.25-1.09,1.21Zm-6.56-.76V16.25h.16c.76,0,.85.57.85,1.27S93.07,18.73,92.32,18.68Zm-1,4.1h1v-3.6l1.39,3.6h1l-1.4-3.58c.83-.15,1-1.2,1-1.89,0-1.85-1.14-1.88-1.88-1.88h-1.2Zm-1.88-7.63a.55.55,0,1,0-.59-.54A.56.56,0,0,0,89.44,15.14Zm.47.27h-1v7.36h1Zm-6,0v7.36h1V19.14h1.51v3.64h1V15.42h-1v2.87H85V15.42Zm-3.68,0v7.36H83v-.85H81.28v-2.5h1.51v-.85H81.28V16.27H83v-.85Zm-2.63,7.86L77,24.66l.43.23.85-1.3Zm1.22-7.71a2.07,2.07,0,0,0-1.06-.25,1.68,1.68,0,0,0-1.69,1.88c0,1.93,2.12,2.23,2.12,3.69,0,.55-.26,1-.88,1a1.66,1.66,0,0,1-1-.38v1A1.81,1.81,0,0,0,79.23,21a2.7,2.7,0,0,0-1.07-2.16L77.4,18a1.17,1.17,0,0,1-.28-.8.89.89,0,0,1,.89-.95,1.4,1.4,0,0,1,.85.31Zm-6.79-.15v7.36h1V19l1.43,3.8h1.15L74.06,19l1.48-3.56h-1L73.12,19l0-3.56Zm-2.33-1a.55.55,0,1,0-.58-.54A.56.56,0,0,0,69.75,14.45Zm-1.61,0a.57.57,0,0,0,.55-.57.56.56,0,0,0-.55-.54.56.56,0,0,0-.58.57A.56.56,0,0,0,68.13,14.45Zm-.94,1v5.08c0,1.33.14,2.38,1.73,2.38,1.75,0,1.73-1.27,1.73-2.24V15.42h-1v5.51c0,.6-.07,1-.76,1-.41,0-.7-.2-.7-1.14v-5.4Zm-4.72,0L64,19.61v3.17h1V19.61l1.4-4.19H65.3l-.64,2.46-.16.95-.94-3.41Zm-1.74-1a.55.55,0,1,0-.58-.54A.56.56,0,0,0,60.73,14.45Zm-1.61,0a.57.57,0,0,0,.55-.57.56.56,0,0,0-.55-.54.56.56,0,0,0-.58.57A.56.56,0,0,0,59.11,14.45Zm-.94,1v5.08c0,1.33.14,2.38,1.74,2.38s1.73-1.27,1.73-2.24V15.42h-1v5.51c0,.6-.07,1-.76,1-.41,0-.7-.2-.7-1.14v-5.4Zm-2.38,1.93c0,.78-.13,1.35-1.06,1.31V16.25h.17C55.59,16.24,55.79,16.77,55.79,17.35ZM55,22.78c1.39,0,1.91-.65,1.91-2,0-.82-.2-1.47-1.06-1.73.8-.23,1-.93,1-1.65,0-1.24-.38-2-1.75-2H53.77v7.36Zm-.25-3.34c.92,0,1.09.49,1.09,1.3S55.6,22,54.73,21.95Zm-6.71-4v7.36h2.69v-.85H49V15.42Zm-4.89,0v5.08c0,1.33.14,2.38,1.73,2.38,1.75,0,1.74-1.27,1.74-2.24V15.42h-1v5.51c0,.6-.07,1-.76,1-.41,0-.7-.2-.7-1.14v-5.4Zm-2.38,1.93c0,.78-.13,1.35-1.06,1.31V16.25h.17C40.55,16.24,40.75,16.77,40.75,17.35Zm-.81,5.43c1.39,0,1.91-.65,1.91-2,0-.82-.2-1.47-1.06-1.73.8-.23,1-.93,1-1.65,0-1.24-.38-2-1.74-2H38.74v7.36Zm-.25-3.34c.92,0,1.09.49,1.09,1.3s-.22,1.25-1.09,1.21Zm-5.1-2.31,1.78,5.65h.93V15.42h-1V18L36.54,21l-1.78-5.57h-1v7.36h1v-2.7l-.15-2.47Zm-3.1,3.45h-1.2l.6-3.74.4,2.67Zm-1-5.16-1.65,7.36h1l.28-1.43h1.5l.28,1.43h1l-1.63-7.36Zm-4.79,0v.85h1.18v6.51h1V16.27h1.13v-.85Zm-.76.15a2.06,2.06,0,0,0-1.06-.25,1.68,1.68,0,0,0-1.69,1.88c0,1.93,2.12,2.23,2.12,3.69,0,.55-.26,1-.88,1a1.65,1.65,0,0,1-1-.38v1A1.81,1.81,0,0,0,25.34,21a2.71,2.71,0,0,0-1.07-2.16L23.5,18a1.17,1.17,0,0,1-.28-.8.89.89,0,0,1,.89-.95,1.4,1.4,0,0,1,.85.31Zm-4.22-.42a.55.55,0,1,0-.59-.54A.56.56,0,0,0,20.76,15.14Zm.47.27h-1v7.36h1Z" transform="translate(0.09 0.49)"/><path class="cls-2" d="M9.25,20.9a3.82,3.82,0,0,0,2.4,1.42v1.73h-.39A4.9,4.9,0,0,1,7.37,20.9a3.66,3.66,0,0,1-.25-1.05c0-.48,0-.43,0-.85h.36v.36h.34V19H8.2v.36h.34V19h.31s0,.45,0,.67a2.66,2.66,0,0,0,.41,1.25Zm5.19,0a4,4,0,0,0,.43-1.46V19h.31a2.41,2.41,0,0,1,0,.36h.39a1.2,1.2,0,0,0,0-.36h.34v.36h.36V19h.36v.59a5,5,0,0,1-.28,1.33,4.34,4.34,0,0,1-.26.62,5.12,5.12,0,0,1-1,1.34,3.39,3.39,0,0,1-.8.59,5.51,5.51,0,0,1-1.88.59h-.26V22.3a3.21,3.21,0,0,0,2.32-1.39ZM8,17.64a1.31,1.31,0,0,1,1.24,1H6.78c.36-.6.63-1,1.27-1Z" transform="translate(0.09 0.49)"/><rect class="cls-2" x="145.78" y="14.42" width="0.32" height="25.73"/><rect class="cls-2" x="147.06" y="14.42" width="0.32" height="26.79"/><rect class="cls-2" x="148.24" y="14.42" width="0.32" height="28.08"/><rect class="cls-2" x="149.47" y="27.32" width="0.32" height="16.1"/><rect class="cls-2" x="149.47" y="14.42" width="0.32" height="11.64"/><rect class="cls-2" x="150.64" y="27.32" width="0.32" height="17.37"/><rect class="cls-2" x="150.64" y="14.42" width="0.32" height="11.64"/><rect class="cls-2" x="151.86" y="27.33" width="0.32" height="8.43"/><rect class="cls-2" x="151.86" y="14.42" width="0.32" height="9.09"/><rect class="cls-2" x="151.86" y="37.29" width="0.32" height="8.17"/><rect class="cls-2" x="153.21" y="27.33" width="0.32" height="8.43"/><rect class="cls-2" x="153.21" y="14.42" width="0.32" height="9.09"/><rect class="cls-2" x="153.21" y="37.29" width="0.32" height="8.17"/><rect class="cls-2" x="154.52" y="27.33" width="0.32" height="8.43"/><rect class="cls-2" x="154.52" y="14.42" width="0.32" height="9.09"/><rect class="cls-2" x="154.52" y="37.29" width="0.32" height="8.17"/><rect class="cls-2" x="155.74" y="27.33" width="0.32" height="8.43"/><rect class="cls-2" x="155.74" y="14.42" width="0.32" height="9.09"/><rect class="cls-2" x="155.74" y="37.29" width="0.32" height="8.17"/><rect class="cls-2" x="156.98" y="27.33" width="0.32" height="8.43"/><rect class="cls-2" x="156.98" y="14.42" width="0.32" height="9.09"/><rect class="cls-2" x="156.98" y="39.46" width="0.32" height="6"/><rect class="cls-2" x="158.11" y="27.33" width="0.32" height="8.43"/><rect class="cls-2" x="158.11" y="14.42" width="0.32" height="9.09"/><rect class="cls-2" x="158.11" y="39.46" width="0.32" height="6"/><rect class="cls-2" x="159.24" y="32.47" width="0.32" height="3.3"/><rect class="cls-2" x="159.24" y="14.42" width="0.32" height="11.71"/><rect class="cls-2" x="159.24" y="39.46" width="0.32" height="6"/><rect class="cls-2" x="160.52" y="32.47" width="0.32" height="3.3"/><rect class="cls-2" x="160.52" y="14.42" width="0.32" height="11.71"/><rect class="cls-2" x="160.52" y="39.46" width="0.32" height="6"/><rect class="cls-2" x="161.81" y="32.47" width="0.32" height="3.3"/><rect class="cls-2" x="161.81" y="14.42" width="0.32" height="11.71"/><rect class="cls-2" x="161.81" y="39.46" width="0.32" height="6"/><rect class="cls-2" x="163.07" y="32.47" width="0.32" height="3.3"/><rect class="cls-2" x="163.07" y="14.42" width="0.32" height="11.71"/><rect class="cls-2" x="163.07" y="39.46" width="0.32" height="6"/><rect class="cls-2" x="164.29" y="32.47" width="0.32" height="3.3"/><rect class="cls-2" x="164.29" y="14.42" width="0.32" height="11.71"/><rect class="cls-2" x="164.29" y="39.46" width="0.32" height="6"/><rect class="cls-2" x="177.82" y="14.42" width="0.32" height="25.73"/><rect class="cls-2" x="176.53" y="14.42" width="0.31" height="26.79"/><rect class="cls-2" x="175.36" y="14.42" width="0.32" height="28.08"/><rect class="cls-2" x="174.13" y="27.32" width="0.32" height="16.1"/><rect class="cls-2" x="174.13" y="14.42" width="0.32" height="11.64"/><rect class="cls-2" x="172.95" y="27.32" width="0.31" height="17.37"/><rect class="cls-2" x="172.95" y="14.42" width="0.31" height="11.64"/><rect class="cls-2" x="171.74" y="27.33" width="0.32" height="8.43"/><rect class="cls-2" x="171.74" y="14.42" width="0.32" height="9.09"/><rect class="cls-2" x="171.74" y="37.29" width="0.32" height="8.17"/><rect class="cls-2" x="170.38" y="27.33" width="0.32" height="8.43"/><rect class="cls-2" x="170.38" y="14.42" width="0.32" height="9.09"/><rect class="cls-2" x="170.38" y="37.29" width="0.32" height="8.17"/><rect class="cls-2" x="169.08" y="27.33" width="0.32" height="8.43"/><rect class="cls-2" x="169.08" y="14.42" width="0.32" height="9.09"/><rect class="cls-2" x="169.08" y="37.29" width="0.32" height="8.17"/><rect class="cls-2" x="167.86" y="27.33" width="0.32" height="8.43"/><rect class="cls-2" x="167.86" y="14.42" width="0.32" height="9.09"/><rect class="cls-2" x="167.86" y="37.29" width="0.32" height="8.17"/><rect class="cls-2" x="166.62" y="27.33" width="0.32" height="8.43"/><rect class="cls-2" x="166.62" y="14.42" width="0.32" height="9.09"/><rect class="cls-2" x="166.62" y="39.46" width="0.32" height="6"/><rect class="cls-2" x="165.49" y="27.33" width="0.32" height="8.43"/><rect class="cls-2" x="165.49" y="14.42" width="0.32" height="9.09"/><rect class="cls-2" x="165.49" y="39.46" width="0.32" height="6"/><path class="cls-2" d="M13.21,20.9l-.61-1.07L12,20.9l1.29.1Zm-1.45,0-.61-1.07-.61,1.07,1.28.1Zm.12-8.57c-.29.23-.36.36-.36.41v1.81h.67V12.69A2.08,2.08,0,0,1,11.89,12.33ZM10.44,15l-.36.36v2.11l.67-.41V15.37S10.7,15.33,10.44,15Zm2.94,0L13,15.4V17l.72.47V15.37Zm-1.5,0-.36.34v1.37h.69V15.4Zm-.74,2.29-.65,1.14h1.32Zm1.48,0L12,18.46h1.29Zm-2.17,1.24L9.8,19.73h1.29Zm1.44,0-.67,1.16h1.32Zm1.43,0-.67,1.16H14ZM9.88,20.9a2.45,2.45,0,0,1-.53-1.54V17.09H7.11a1.27,1.27,0,0,1,.9-.74l.21,0,.2,0c.52,0,.91.7.93.72v-1.8S9,15,9,14.85v-.31h.34V12.47l.31-2.1.39,2v2.14h.75V12.67c0-.18-.29-.24-.28-.44V12h.28V10.32l.33-2.21.39,2.2V12h.72V10.26l.33-2.21L13,10.26V12h.26v.36s-.26.19-.26.34v1.89h.75v-2l.35-2.19.37,2.19v2h.28v.26a.8.8,0,0,1-.28.39V17a1.58,1.58,0,0,1,1.11-.62,1.19,1.19,0,0,1,1.05.7H14.46v1.47c.07-.08.49-.82,1.08-.85h.39a1.27,1.27,0,0,1,1,.9H14.43v.49a3.22,3.22,0,0,1-.55,1.82,2.16,2.16,0,0,1-1.77,1H11.6A2.51,2.51,0,0,1,9.88,20.9Z" transform="translate(0.09 0.49)"/></svg>